<?xml version="1.0" standalone="no"?>
<!DOCTYPE svg PUBLIC "-//W3C//DTD SVG 20010904//EN"
 "http://www.w3.org/TR/2001/REC-SVG-20010904/DTD/svg10.dtd">
<svg version="1.0" xmlns="http://www.w3.org/2000/svg"
 width="257.000000pt" height="257.000000pt" viewBox="0 0 257.000000 257.000000"
 preserveAspectRatio="xMidYMid meet">
<metadata>
Created by potrace 1.11, written by Peter Selinger 2001-2013
</metadata>
<g transform="translate(0.000000,257.000000) scale(0.100000,-0.100000)"
fill="#000000" stroke="none">
<path d="M1830 2486 c0 -119 -2 -116 91 -116 73 0 80 2 89 23 l9 22 0 -22 c1
-27 21 -31 21 -5 0 14 2 15 10 2 7 -10 9 17 8 85 l-2 100 -6 -85 -6 -85 -2 83
-2 82 -105 0 -105 0 0 -84z m170 -86 c0 -5 -18 -10 -40 -10 -22 0 -40 5 -40
10 0 6 18 10 40 10 22 0 40 -4 40 -10z"/>
<path d="M1397 2353 l-49 -4 3 -104 c2 -58 1 -106 -2 -109 -2 -2 -170 -6 -374
-8 l-370 -3 -5 -100 -5 -100 -9 87 c-4 47 -5 92 -1 99 6 9 2 10 -16 6 -13 -4
-62 -7 -109 -7 l-85 0 3 -110 3 -110 89 0 c55 0 91 -4 96 -11 4 -8 11 -4 19
11 11 21 12 19 18 -26 3 -27 3 -98 1 -159 -2 -60 -5 -262 -5 -448 -1 -185 -5
-340 -10 -343 -5 -3 -10 -22 -10 -42 -1 -23 -3 -29 -6 -14 -3 14 -12 22 -26
23 l-22 0 22 9 c43 17 23 25 -72 28 l-95 3 0 -106 c0 -58 -1 -108 -2 -112 -2
-5 47 -9 107 -10 61 -1 207 -5 325 -8 118 -3 289 -6 380 -5 l165 0 0 -112 0
-113 108 0 109 0 1 98 c1 53 5 97 9 97 4 0 5 7 2 15 -5 13 28 15 242 17 l249
3 3 243 2 242 113 0 112 0 -1 98 c0 53 -1 105 -2 115 -2 15 -15 17 -112 17
l-110 0 0 125 0 124 110 3 110 3 5 95 c5 105 1 130 -21 130 -9 0 -12 -5 -8
-12 5 -8 -16 -10 -85 -5 -51 4 -97 9 -102 13 -5 3 -9 59 -9 124 0 78 -4 121
-11 126 -7 4 -122 6 -256 5 -210 -1 -244 1 -240 13 4 9 -1 17 -11 19 -15 4
-14 5 2 6 17 1 18 7 11 89 -4 48 -8 88 -9 89 -6 6 -125 10 -169 6z m33 -163
c0 -5 -9 -10 -20 -10 -11 0 -20 5 -20 10 0 6 9 10 20 10 11 0 20 -4 20 -10z
m-17 -37 c-7 -2 -19 -2 -25 0 -7 3 -2 5 12 5 14 0 19 -2 13 -5z m854 -779 c-3
-3 -12 -4 -19 -1 -8 3 -5 6 6 6 11 1 17 -2 13 -5z m-60 -181 c-20 -2 -52 -2
-70 0 -17 2 0 4 38 4 39 0 53 -2 32 -4z m-1694 -310 c-7 -2 -21 -2 -30 0 -10
3 -4 5 12 5 17 0 24 -2 18 -5z m84 -50 c-3 -10 -5 -2 -5 17 0 19 2 27 5 18 2
-10 2 -26 0 -35z m-92 20 c-11 -3 -23 -10 -27 -17 -5 -7 -8 -7 -8 0 0 16 11
24 34 23 20 -1 20 -1 1 -6z m52 1 c-3 -3 -12 -4 -19 -1 -8 3 -5 6 6 6 11 1 17
-2 13 -5z m30 -76 c-3 -7 -5 -2 -5 12 0 14 2 19 5 13 2 -7 2 -19 0 -25z m20
-5 c-3 -10 -5 -4 -5 12 0 17 2 24 5 18 2 -7 2 -21 0 -30z m-10 -55 c-3 -8 -6
-5 -6 6 -1 11 2 17 5 13 3 -3 4 -12 1 -19z m-134 -5 c-13 -2 -33 -2 -45 0 -13
2 -3 4 22 4 25 0 35 -2 23 -4z m1040 -70 c-13 -2 -33 -2 -45 0 -13 2 -3 4 22
4 25 0 35 -2 23 -4z m17 -22 c0 -5 8 -12 18 -14 9 -2 4 -3 -12 -1 -16 2 -41 4
-57 4 -16 0 -29 5 -29 10 0 6 18 10 40 10 22 0 40 -4 40 -9z m-17 -38 c-13 -2
-33 -2 -45 0 -13 2 -3 4 22 4 25 0 35 -2 23 -4z"/>
<path d="M2218 1873 c6 -2 18 -2 25 0 6 3 1 5 -13 5 -14 0 -19 -2 -12 -5z"/>
<path d="M188 1633 l-58 -4 0 -110 0 -110 113 3 112 3 3 106 3 106 -32 7 c-17
3 -43 5 -58 4 -14 -1 -52 -3 -83 -5z m115 -30 c-13 -2 -33 -2 -45 0 -13 2 -3
4 22 4 25 0 35 -2 23 -4z m-21 -30 c-23 -2 -61 -2 -85 0 -23 2 -4 4 43 4 47 0
66 -2 42 -4z m-59 -30 c-13 -2 -33 -2 -45 0 -13 2 -3 4 22 4 25 0 35 -2 23 -4z
m112 -102 c3 -5 1 -12 -5 -16 -5 -3 -10 1 -10 9 0 18 6 21 15 7z m-175 -5 c0
-3 -4 -8 -10 -11 -5 -3 -10 -1 -10 4 0 6 5 11 10 11 6 0 10 -2 10 -4z"/>
<path d="M713 202 l-93 -3 0 -99 0 -100 110 0 110 0 0 99 c0 115 10 107 -127
103z"/>
</g>
</svg>
