<svg xmlns="http://www.w3.org/2000/svg" viewBox="0 0 32 32" shape-rendering="crispEdges">
  <rect x="8" y="3" width="18" height="20" fill="#ffffff"/>
  <rect x="8" y="3" width="18" height="1" fill="#ffffff"/>
  <rect x="8" y="3" width="1" height="20" fill="#ffffff"/>
  <rect x="25" y="4" width="1" height="19" fill="#808080"/>
  <rect x="9" y="22" width="17" height="1" fill="#808080"/>
  <rect x="11" y="7" width="10" height="2" fill="#808080"/>
  <rect x="11" y="11" width="12" height="1" fill="#c0c0c0"/>
  <rect x="11" y="14" width="9" height="1" fill="#c0c0c0"/>
  <rect x="4" y="16" width="26" height="13" fill="#c0c0c0"/>
  <rect x="4" y="16" width="26" height="1" fill="#ffffff"/>
  <rect x="4" y="16" width="1" height="13" fill="#ffffff"/>
  <rect x="5" y="28" width="25" height="1" fill="#404040"/>
  <rect x="29" y="17" width="1" height="12" fill="#404040"/>
  <rect x="7" y="19" width="20" height="3" fill="#808080"/>
  <rect x="9" y="23" width="16" height="3" fill="#ffffff"/>
  <rect x="10" y="24" width="8" height="1" fill="#808080"/>
  <rect x="22" y="23" width="3" height="3" fill="#d9a2aa"/>
</svg>
