<svg xmlns="http://www.w3.org/2000/svg" viewBox="0 0 32 32" shape-rendering="crispEdges">
  <rect x="4" y="5" width="27" height="25" fill="#404040"/>
  <rect x="2" y="3" width="27" height="25" fill="#c0c0c0"/>
  <rect x="2" y="3" width="27" height="1" fill="#ffffff"/>
  <rect x="2" y="3" width="1" height="25" fill="#ffffff"/>
  <rect x="3" y="27" width="26" height="1" fill="#808080"/>
  <rect x="28" y="4" width="1" height="24" fill="#808080"/>
  <rect x="4" y="5" width="23" height="5" fill="#000080"/>
  <rect x="5" y="6" width="2" height="2" fill="#ffffff"/>
  <rect x="22" y="6" width="3" height="3" fill="#c0c0c0"/>
  <rect x="4" y="11" width="23" height="14" fill="#ffffff"/>
  <rect x="6" y="13" width="8" height="2" fill="#1084d0"/>
  <rect x="6" y="17" width="12" height="1" fill="#808080"/>
  <rect x="6" y="20" width="9" height="1" fill="#808080"/>
  <rect x="20" y="17" width="5" height="5" fill="#9ed8a6"/>
  <rect x="21" y="16" width="3" height="1" fill="#9ed8a6"/>
  <rect x="21" y="22" width="3" height="1" fill="#6aa97b"/>
  <rect x="19" y="18" width="1" height="3" fill="#9ed8a6"/>
  <rect x="25" y="18" width="1" height="3" fill="#6aa97b"/>
</svg>
