<svg xmlns="http://www.w3.org/2000/svg" viewBox="0 0 64 64" shape-rendering="crispEdges">
  <rect width="64" height="64" fill="#0f0f0f"/>
  <rect x="9" y="7" width="46" height="6" fill="#fff9f0"/>
  <rect x="6" y="13" width="52" height="37" fill="#fff9f0"/>
  <rect x="2" y="24" width="10" height="19" fill="#fff9f0"/>
  <rect x="52" y="24" width="10" height="19" fill="#fff9f0"/>
  <rect x="6" y="48" width="19" height="10" fill="#fff9f0"/>
  <rect x="39" y="48" width="19" height="10" fill="#fff9f0"/>

  <rect x="11" y="11" width="42" height="36" fill="#d87655"/>
  <rect x="5" y="27" width="12" height="13" fill="#d87655"/>
  <rect x="47" y="27" width="12" height="13" fill="#d87655"/>
  <rect x="10" y="47" width="7" height="8" fill="#d87655"/>
  <rect x="20" y="47" width="7" height="8" fill="#d87655"/>
  <rect x="37" y="47" width="7" height="8" fill="#d87655"/>
  <rect x="48" y="47" width="7" height="8" fill="#d87655"/>
  <rect x="13" y="12" width="25" height="3" fill="#e39875"/>
  <rect x="50" y="12" width="3" height="35" fill="#bd6049"/>

  <path d="M15 24h2l10 4v5l-10 4h-2v-6l7-2-7-3z" fill="#050505"/>
  <path d="M49 24h-2l-10 4v5l10 4h2v-6l-7-2 7-3z" fill="#050505"/>
</svg>
